<svg xmlns="http://www.w3.org/2000/svg" viewBox="0 0 44 164.34"><defs><style>.cls-1{fill:#82368c;}</style></defs><g id="Capa_2" data-name="Capa 2"><g id="Capa_2-2" data-name="Capa 2"><path class="cls-1" d="M28.32.14c-2.11.59-1,10.3.26,25.53.6,7.62,1.14,16.64,1.08,26.57-.08,5-.21,10.15-.71,15.49-.17,2.67-.55,5.37-.84,8.11s-.76,5.5-1.31,8.26a179.43,179.43,0,0,1-8.63,30.79c-3.45,9.36-7.09,17.74-10.09,24.87S2.65,152.77,1.3,157s-1.7,6.83-.79,7.35,3-1.08,5.93-4.43a135.93,135.93,0,0,0,11.13-15.11,192,192,0,0,0,13.56-24.59,157.38,157.38,0,0,0,6.15-15.69c.44-1.4.9-2.81,1.33-4.26l1.2-4.38c.68-3,1.45-6,1.95-9.08s1-6.15,1.37-9.17.6-6,.69-9a145.15,145.15,0,0,0-.15-16.88,153.13,153.13,0,0,0-4.48-27.95C35.08,8.33,30.24-.42,28.32.14Z" transform="translate(0 -0.11)"/></g></g></svg>