<svg xmlns="http://www.w3.org/2000/svg" viewBox="0 0 31.83 31.65"><defs><style>.cls-1{fill:#36a9e1;}</style></defs><g id="Capa_2" data-name="Capa 2"><g id="Capa_2-2" data-name="Capa 2"><path class="cls-1" d="M3.4,5.67a2.07,2.07,0,0,0-1.53.65,4.68,4.68,0,0,0-.73.91A7.06,7.06,0,0,0,.55,8.55a14.35,14.35,0,0,0,.34,8.89A21.22,21.22,0,0,0,9.33,28.25a21.15,21.15,0,0,0,3.78,2,17.81,17.81,0,0,0,2.13.74,13.82,13.82,0,0,0,2.59.54,14.34,14.34,0,0,0,6.45-.61,11.61,11.61,0,0,0,4-2.38,10.72,10.72,0,0,0,3-4.6,11.31,11.31,0,0,0,.56-3.62,13.59,13.59,0,0,0-.28-2.7,17.22,17.22,0,0,0-.5-1.91c-.17-.52-.33-1-.5-1.45a30,30,0,0,0-2.7-5.52,21.4,21.4,0,0,0-4.21-4.91A16.92,16.92,0,0,0,17.86.58,13.11,13.11,0,0,0,12.41.1,12.41,12.41,0,0,0,8.15,1.45,11.39,11.39,0,0,0,5.09,3.74,9.24,9.24,0,0,0,3.28,6.47a5.62,5.62,0,0,0-.14,4.31,2.55,2.55,0,0,0,1.78,1.57,2.91,2.91,0,0,0,1.78-.48A8.48,8.48,0,0,1,8.88,11a4.72,4.72,0,0,1,1.18-.06,7.22,7.22,0,0,1,1.29.16,3.58,3.58,0,0,1,1.15.44,1.67,1.67,0,0,1,.56.65,13.51,13.51,0,0,1,2.13,3.63,31.74,31.74,0,0,1,1.12,3.24c.08.3.16.6.25.91a3.71,3.71,0,0,1,.1.51v0l.9-.12a15.44,15.44,0,0,1,1.62-.1,5.43,5.43,0,0,1,1.6.19l.08,0h.05l-.09,0h0l.11.07a0,0,0,0,1,0,0,.55.55,0,0,1-.11-.1A4.49,4.49,0,0,1,20,18.91a12.3,12.3,0,0,1-.34-1.24L19.53,17l0-.33c0-.11,0,0,0-.05s-.12.05-.24.06a1.16,1.16,0,0,1-.52,0,8,8,0,0,1-.83-.14,11.29,11.29,0,0,1-1.67-.48,17.81,17.81,0,0,1-5.9-3.79A49,49,0,0,1,6.43,7.91c-.25-.31-.53-.6-.77-.86a6.79,6.79,0,0,0-.73-.7A2.73,2.73,0,0,0,3.4,5.67Z"/><path class="cls-1" d="M16.46,17.69a7.62,7.62,0,0,0,4.67-3A4.32,4.32,0,0,0,16.71,8a7.64,7.64,0,0,0-4.58,3.15,30.27,30.27,0,0,0-2.81,4.67c-.65,1.28-1.07,2.1-.83,2.45s1.15.28,2.58.18A29.93,29.93,0,0,0,16.46,17.69Z"/></g></g></svg>