<svg xmlns="http://www.w3.org/2000/svg" viewBox="0 0 88.06 58.66"><defs><style>.cls-1{fill:#36a9e1;}</style></defs><g id="Capa_2" data-name="Capa 2"><g id="Capa_2-2" data-name="Capa 2"><path class="cls-1" d="M.36.43c-.72.75-.36,2.51,1.06,5a46.87,46.87,0,0,0,7.35,9.2,118.36,118.36,0,0,0,13,11.16c5.12,3.84,10.88,7.69,17,11.55A272.54,272.54,0,0,0,71.21,55.22a56.63,56.63,0,0,0,6.37,2.51,19.16,19.16,0,0,0,5.6.93,8.06,8.06,0,0,0,3.69-.75c.82-.44,1.19-.95,1.19-1.47,0-1.08-1.39-2-3.23-3.46-.93-.74-2-1.65-3.28-2.78S78.8,47.71,77,46.13A273.54,273.54,0,0,0,46.87,24.47c-6.12-3.87-12-7.33-17.37-10.39s-10.13-5.76-14.19-8C7.19,1.62,1.86-1.1.36.43Z"/></g></g></svg>