<svg xmlns="http://www.w3.org/2000/svg" viewBox="0 0 56.11 138.69"><defs><style>.cls-1{fill:#82368c;}</style></defs><g id="Capa_2" data-name="Capa 2"><g id="Capa_2-2" data-name="Capa 2"><path class="cls-1" d="M55.78.33c-.78-.7-2.9.24-6.12,2.6C48.86,3.52,48,4.2,47,5s-1.85,1.69-2.86,2.65a85.85,85.85,0,0,0-6.57,6.89c-1.15,1.34-2.34,2.76-3.57,4.24s-2.37,3.14-3.61,4.81c-2.52,3.31-4.86,7.09-7.34,11.06A174.49,174.49,0,0,0,9.94,62.08,175.36,175.36,0,0,0,2.06,91.49c-.7,4.63-1.38,9-1.62,13.18-.14,2.07-.34,4.06-.39,6s0,3.78,0,5.55a84.08,84.08,0,0,0,.5,9.5c.14,1.4.27,2.69.46,3.88s.44,2.27.66,3.25c.91,3.88,1.92,6,3,5.95s2.05-2.16,3-5.92c.23-.94.45-2,.67-3.12s.5-2.36.79-3.68c.55-2.64,1-5.63,1.71-8.91q.49-2.46,1-5.13c.34-1.79.81-3.62,1.21-5.53.74-3.83,1.84-7.85,2.85-12.1C18,86,20.76,76.79,24.2,67.35s7.41-18.16,11.2-26c2-3.89,3.78-7.65,5.7-11,.94-1.71,1.77-3.41,2.68-5s1.77-3.08,2.59-4.55c1.57-3,3.2-5.51,4.49-7.87l1.8-3.31c.57-1,1.08-1.94,1.52-2.8C55.93,3.31,56.56,1,55.78.33Z" transform="translate(0 -0.11)"/></g></g></svg>