<svg xmlns="http://www.w3.org/2000/svg" viewBox="0 0 93.24 17.95"><defs><style>.cls-1{fill:#662483;}</style></defs><g id="Capa_2" data-name="Capa 2"><g id="Capa_2-2" data-name="Capa 2"><path class="cls-1" d="M93.29,3.26C92.89,1.17,87.44.31,79,.07A299,299,0,0,0,46,1.28c-6.48.6-12.67,1.42-18.29,2.43A116.41,116.41,0,0,0,12.83,7.32C4.46,10-.34,13.06.1,15.07S6,17.86,14.47,17.94c4.22,0,9.22-.05,14.77-.3S40.9,17,47.35,16.43,60,15.06,65.58,14.11a124.48,124.48,0,0,0,14.84-3.39C88.8,8.2,93.68,5.29,93.29,3.26Z" transform="translate(-0.08)"/></g></g></svg>