<svg xmlns="http://www.w3.org/2000/svg" viewBox="0 0 171.15 105.19"><defs><style>.cls-1{fill:#82368c;}</style></defs><g id="Capa_2" data-name="Capa 2"><g id="Capa_2-2" data-name="Capa 2"><path class="cls-1" d="M122.61,28c.07.25.47.43,1.17.56s1.67.12,2.93.33a28.3,28.3,0,0,1,10.1,3.07,35.55,35.55,0,0,1,6.29,4.25,46.07,46.07,0,0,1,6.29,6.56,49.33,49.33,0,0,1,5.53,8.83A33.92,33.92,0,0,1,158.3,62.1a17,17,0,0,1-.11,5.2c-.07.41-.19.81-.28,1.22s-.22.79-.41,1.17-.32.77-.51,1.14l-.62,1.11c-1.82,2.89-5,5.4-9.13,7.38A52.64,52.64,0,0,1,140.61,82c-2.36.78-4.86,1.43-7.54,2.1-5.29,1.32-10.78,2.47-16.44,3.41a209.2,209.2,0,0,1-35.85,2.83c-6.21,0-12.63-.36-18.91-1a90.86,90.86,0,0,1-18.32-3.71,47.07,47.07,0,0,1-15.42-8.07l-.82-.66-.71-.67a16.56,16.56,0,0,1-1.41-1.37c-.43-.5-.9-1-1.32-1.47l-1.21-1.57a33.25,33.25,0,0,1-3.79-6.91A27.17,27.17,0,0,1,17,57.5a20.7,20.7,0,0,1,.3-7,18.89,18.89,0,0,1,2.48-6,20.9,20.9,0,0,1,4.61-4.9A45.08,45.08,0,0,1,37.8,32.9c2.49-.83,5-1.58,7.61-2.28s5.13-1.4,7.66-2C63.14,26,72.63,24,81.35,22.43c17.45-3.17,31.79-4.77,41.74-5.9s15.53-1.92,15.55-3-5.53-2.22-15.69-2.9a258.79,258.79,0,0,0-43.12,1.16c-9.08.94-19,2.39-29.56,4.51-2.64.52-5.31,1.11-8,1.71s-5.55,1.3-8.44,2.14A57.18,57.18,0,0,0,16,28.38a34.73,34.73,0,0,0-7.93,8A32.84,32.84,0,0,0,3.19,47.18,35.18,35.18,0,0,0,2.36,58.9,41.57,41.57,0,0,0,5,70.2a47.92,47.92,0,0,0,5.45,10.29l1.79,2.36c.62.77,1.31,1.5,2,2.25a28.54,28.54,0,0,0,2.13,2.13l1.11,1,1.12.93A61.17,61.17,0,0,0,38.83,100a102.3,102.3,0,0,0,21.46,4.3,195.73,195.73,0,0,0,20.49.89,205.46,205.46,0,0,0,38.37-3.94q9-1.81,17.44-4.3c2.75-.81,5.6-1.68,8.38-2.75a63.73,63.73,0,0,0,8.16-3.74,40.41,40.41,0,0,0,7.51-5.3,28,28,0,0,0,5.91-7.41,24.64,24.64,0,0,0,2.8-8.93,28.19,28.19,0,0,0-.44-8.54,42.75,42.75,0,0,0-5.51-13.41,54.07,54.07,0,0,0-7.66-9.81,47.76,47.76,0,0,0-8.42-6.8A35.69,35.69,0,0,0,139,26.42a23.32,23.32,0,0,0-12.54-.63,9.72,9.72,0,0,0-3,1.21Q122.51,27.57,122.61,28Z" transform="translate(0 -0.02)"/><path class="cls-1" d="M127.52,37.3c1,.47,2.64-1.42,6-2.12a13.56,13.56,0,0,1,6,0,11.29,11.29,0,0,1,3.19,1.28,17.18,17.18,0,0,1,3.16,2.5,32.58,32.58,0,0,1,5.73,8.67,56.79,56.79,0,0,1,4.31,12c.92,4.18,1.08,8.42,0,11.88a14.13,14.13,0,0,1-2.63,4.76,19.48,19.48,0,0,1-4.7,4,28.06,28.06,0,0,1-6.17,2.87,47.52,47.52,0,0,1-7,1.73c-4.91.86-10.12,1.23-15.32,1.85a202.38,202.38,0,0,0-27.18,5c-15.24,4-24,8.44-23.51,10.42s10.14,1.36,25.29.19c7.57-.58,16.55-1.23,26.5-1.62,4.94-.22,10.43-.28,16.49-1.1a56.25,56.25,0,0,0,9.42-2,41.17,41.17,0,0,0,9.59-4.38,33.25,33.25,0,0,0,8.38-7.37,28.34,28.34,0,0,0,5.18-10.11,31.47,31.47,0,0,0,1-10.46A41.46,41.46,0,0,0,169.36,56a59.34,59.34,0,0,0-6.9-14.6,37.68,37.68,0,0,0-10-10.83,23.77,23.77,0,0,0-6.26-3.07,18.56,18.56,0,0,0-6.34-.79,17,17,0,0,0-5.27,1.07A14.35,14.35,0,0,0,130.67,30a9.4,9.4,0,0,0-3.55,5,3.44,3.44,0,0,0-.09,1.62A.94.94,0,0,0,127.52,37.3Z" transform="translate(0 -0.02)"/><path class="cls-1" d="M116.26.37c-.71-.79-2.82-.17-6.11,1.25s-7.83,3.57-13.52,5.65A104.46,104.46,0,0,1,76.2,12.38c-7.93,1.24-17,1.86-26.81,2.71-4.94.44-9.75.91-14.62,1.65a68.35,68.35,0,0,0-14.34,3.61,43.2,43.2,0,0,0-6.63,3.22,35.63,35.63,0,0,0-5.74,4.35L6.83,29.15c-.41.41-.81.92-1.2,1.38a25.58,25.58,0,0,0-2,2.87A25.86,25.86,0,0,0,1,39.26,23.15,23.15,0,0,0,.33,50a16.65,16.65,0,0,0,3.2,7.46,9.74,9.74,0,0,0,4,3.09c1.13.37,1.83.3,2.15-.12.7-.87-.39-2.74-.87-5.65a16.67,16.67,0,0,1,0-5.19,18.85,18.85,0,0,1,4.39-9.43,18.51,18.51,0,0,1,1.36-1.3c.25-.2.44-.4.74-.61l.87-.63a27.6,27.6,0,0,1,4-2.24A35.15,35.15,0,0,1,25,33.61a70.28,70.28,0,0,1,11.76-2.1c4.34-.47,9.12-.84,14-1.27,9.77-.85,19.46-1.93,28.26-4.13a76,76,0,0,0,22.44-9.22A50.7,50.7,0,0,0,113.77,6.3C116.17,3.27,117,1.14,116.26.37Z" transform="translate(0 -0.02)"/></g></g></svg>