<svg xmlns="http://www.w3.org/2000/svg" viewBox="0 0 48.08 83.27"><defs><style>.cls-1{fill:#36a9e1;}</style></defs><g id="Capa_2" data-name="Capa 2"><g id="Capa_2-2" data-name="Capa 2"><path class="cls-1" d="M1.5,83.29c2,.69,5.43-3.69,10-10.79S22,55.62,28.87,44.87c3.43-5.41,6.73-10.69,9.54-15.72a114.27,114.27,0,0,0,6.74-13.93C48.42,6.86,48.85,1,47,.21s-5.72,3.11-11.1,9.61c-2.69,3.26-5.8,7.19-9.19,11.69s-7,9.57-10.64,15.23A132.59,132.59,0,0,0,7,53.49,97.81,97.81,0,0,0,1.66,68.2C-.6,76.86-.45,82.62,1.5,83.29Z" transform="translate(0 -0.09)"/></g></g></svg>