<svg xmlns="http://www.w3.org/2000/svg" viewBox="0 0 67.8 132.85"><defs><style>.cls-1{fill:#36a9e1;}</style></defs><g id="Capa_2" data-name="Capa 2"><g id="Capa_2-2" data-name="Capa 2"><path class="cls-1" d="M.89.18C-.09.54-.25,2.83.35,6.72c.15,1,.35,2,.59,3.2s.62,2.38,1,3.71a91.15,91.15,0,0,0,3,8.83q.93,2.41,2,5c.71,1.74,1.55,3.49,2.39,5.32C11,36.5,13,40.3,15,44.3c4.23,7.94,9.19,16.42,14.47,25.14S39.72,86.37,44.08,93.87c2.09,3.79,4.22,7.33,6,10.74.9,1.69,1.83,3.31,2.65,4.89s1.56,3.12,2.31,4.58c1.58,2.88,2.75,5.58,4,7.92l1.71,3.27c.48,1,.95,2,1.4,2.78,1.78,3.33,3.28,5.12,4.3,4.9s1.49-2.46,1.42-6.41c0-1-.07-2.09-.16-3.28s-.34-2.45-.56-3.82a75.45,75.45,0,0,0-2-9.2c-.47-1.67-1-3.43-1.53-5.25s-1.28-3.65-2-5.57c-1.36-3.87-3.16-7.81-5-12a289.6,289.6,0,0,0-14-25.84c-5.35-8.84-10.62-17-15.41-24.39L20.38,26.75c-1.05-1.64-2.11-3.21-3.07-4.73s-1.88-3-2.78-4.38c-1.86-2.76-3.37-5.32-4.85-7.53C9,9,8.23,8,7.59,7S6.38,5.23,5.82,4.46C3.59,1.38,1.87-.19.89.18Z" transform="translate(0 -0.12)"/></g></g></svg>