<svg xmlns="http://www.w3.org/2000/svg" viewBox="0 0 69.4 186.81"><defs><style>.cls-1{fill:#3c3c3b;}</style></defs><g id="Capa_2" data-name="Capa 2"><g id="Capa_2-2" data-name="Capa 2"><path class="cls-1" d="M41.33,187c.47-.24.48-1.42.1-3.4-.2-1-.51-2.17-.79-3.59s-.78-3-1.11-4.81c-.19-.9-.4-1.85-.61-2.85s-.37-2.06-.58-3.15c-.44-2.17-.7-4.58-1.07-7.12a110.43,110.43,0,0,1-.56-17.37,98.58,98.58,0,0,1,3.2-20.51c.47-1.8,1.08-3.58,1.63-5.41.33-.9.66-1.8,1-2.71s.65-1.84,1.06-2.73c.78-1.8,1.53-3.62,2.46-5.48s1.89-3.8,2.91-5.8a109.52,109.52,0,0,0,6-13.39,51,51,0,0,0,2.08-8c.1-.71.23-1.42.31-2.15s.13-1.47.19-2.2,0-1.64,0-2.45-.11-1.62-.18-2.43a31.35,31.35,0,0,0-7.88-17.55,24.54,24.54,0,0,0-8.93-6.28,16.58,16.58,0,0,0-2.85-.89,15.25,15.25,0,0,0-3-.49,15.76,15.76,0,0,0-3.07,0,19.36,19.36,0,0,0-3,.41,21.72,21.72,0,0,0-10.26,5.51,25.5,25.5,0,0,0-6,8.87,29.34,29.34,0,0,0-.52,19.52,40.56,40.56,0,0,0,1.53,4.22c.29.67.59,1.34.91,2,.16.33.32.65.49,1l.31.59c.14.26.28.52.43.77.61,1,1.17,2,1.85,2.95a16.53,16.53,0,0,0,2.19,2.49,12,12,0,0,0,5.38,3,11.07,11.07,0,0,0,6,.16,12.18,12.18,0,0,0,5.32-2.72,10.12,10.12,0,0,0,1.13-1,10.54,10.54,0,0,0,1-1.18l1-1.26L40.11,90a11.43,11.43,0,0,0,.73-1.44l.67-1.47c.11-.25.2-.52.29-.78l.23-.67c.12-.36.22-.72.32-1.09a26.58,26.58,0,0,0,.83-4.46,38.81,38.81,0,0,0,.08-3.9c0-1.17,0-2.33,0-3.48s-.15-2.29-.22-3.42a100,100,0,0,0-1.79-13,98.51,98.51,0,0,0-7.35-22.2A89,89,0,0,0,14.54,6.91,42.8,42.8,0,0,0,7.39,1.39C5.59.33,4.49,0,4.14.37s.05,1.49,1.11,3.21S8,7.7,10,10.75A123.84,123.84,0,0,1,23.93,38.14,101.18,101.18,0,0,1,28.8,58.41a98.79,98.79,0,0,1,.86,11.48l0,3-.13,3c0,1-.07,2.21-.16,2.67a12.49,12.49,0,0,1-.51,2.07,4.36,4.36,0,0,1-.17.51l0,.12h0l-.08.09a.52.52,0,0,1-.17.13.27.27,0,0,1-.34,0,.48.48,0,0,1-.12-.29h0l0,0L27.84,81c-.11-.22-.21-.44-.31-.65-.21-.44-.38-.87-.56-1.31a24.84,24.84,0,0,1-.89-2.64,18.55,18.55,0,0,1-.7-5.16,15.48,15.48,0,0,1,.24-2.39,13.78,13.78,0,0,1,.64-2.08,10.75,10.75,0,0,1,2.47-3.57,6.73,6.73,0,0,1,3.12-1.73,5.65,5.65,0,0,1,3.14.28,9.56,9.56,0,0,1,3.37,2.41,15.32,15.32,0,0,1,2.78,4.18,18,18,0,0,1,1.43,4.88c0,.4.13.81.12,1.2l0,1.18L42.63,77c0,.47-.11.94-.16,1.41a38.51,38.51,0,0,1-1.32,5.74A104.81,104.81,0,0,1,36.33,96c-.92,2-1.85,4.07-2.75,6.18s-1.71,4.29-2.49,6.43c-.41,1.06-.73,2.15-1.05,3.22L29.09,115c-.51,2.15-1.07,4.24-1.47,6.33A96.22,96.22,0,0,0,26,144.74a92.85,92.85,0,0,0,3,18.95c.81,2.7,1.53,5.21,2.44,7.44.44,1.12.81,2.2,1.27,3.19L34,177.15a48.5,48.5,0,0,0,2.51,4.58,23.51,23.51,0,0,0,2.19,3.14C40,186.5,40.87,187.22,41.33,187Z" transform="translate(0 -0.22)"/><path class="cls-1" d="M68.11,125.58c-1.8-1.06-5.31,1.1-9.4,5.62A86.54,86.54,0,0,0,46,150.75a87,87,0,0,0-7.62,22.06c-1,6-.6,10.09,1.34,10.86s5-1.88,8.56-6.66a133.41,133.41,0,0,0,11.38-19.58,133.52,133.52,0,0,0,8.46-21C69.72,130.71,69.93,126.65,68.11,125.58Z" transform="translate(0 -0.22)"/><path class="cls-1" d="M.42,140.14c-1.24,1.72.35,5.15,3.5,9.5A183,183,0,0,0,17.1,165.05a181.11,181.11,0,0,0,14.4,14.29c4.1,3.47,7.4,5.31,9.21,4.2s1.67-5-.4-10.37a51.43,51.43,0,0,0-4.59-8.87,71.26,71.26,0,0,0-7.47-9.59,70.4,70.4,0,0,0-9-8.16,51,51,0,0,0-8.5-5.24C5.52,138.85,1.63,138.45.42,140.14Z" transform="translate(0 -0.22)"/></g></g></svg>