<svg xmlns="http://www.w3.org/2000/svg" viewBox="0 0 93.77 78.28"><defs><style>.cls-1{fill:#662483;}</style></defs><g id="Capa_2" data-name="Capa 2"><g id="Capa_2-2" data-name="Capa 2"><path class="cls-1" d="M93.6,77.7c1.17-1.77-3.45-7-11.52-14.46-4-3.7-8.93-8-14.41-12.62s-11.51-9.71-17.88-15-12.43-10.3-18-14.8S21.09,12.29,16.7,9C7.92,2.44,1.88-1.13.36.35s1.86,7.7,8.88,16.39a188.4,188.4,0,0,0,13.14,14.5c5.21,5.19,11.17,10.67,17.7,16.1s13,10.26,19.1,14.42A189.36,189.36,0,0,0,75.84,72C85.69,77.3,92.45,79.43,93.6,77.7Z" transform="translate(-0.01 -0.02)"/></g></g></svg>